# AST/ASF file generated using VICON BodyLanguage
# -----------------------------------------------
:version 1.10
:name VICON
:units
  mass 1.0
  length 0.45
  angle deg
:documentation
   .ast/.asf automatically generated from VICON data using
   VICON BodyBuilder and BodyLanguage model FoxedUp or BRILLIANT.MOD
:root
   order TX TY TZ RX RY RZ
   axis XYZ
   position 0 0 0  
   orientation 0 0 0 
:bonedata
  begin
     id 1 
     name lhipjoint
     direction 0.57768 -0.667037 0.470475 
     length 2.36008 
     axis 0 0 0  XYZ
  end
  begin
     id 2 
     name lfemur
     direction 0.34202 -0.939693 0  
     length 6.97235  
     axis 0 0 20  XYZ
    dof rx ry rz
    limits (-160.0 20.0)
           (-70.0 70.0)
           (-60.0 70.0)
  end
  begin
     id 3 
     name ltibia
     direction 0.34202 -0.939693 0   
     length 6.93428   
     axis 0 0 20   XYZ
    dof rx
    limits (-10.0 170.0)
  end
  begin
     id 4 
     name lfoot
     direction 0.133018 -0.365463 0.921272   
     length 2.18603   
     axis -90 7.62852e-016 20   XYZ
    dof rx rz
    limits (-45.0 90.0)
           (-70.0 20.0)
  end
  begin
     id 5 
     name ltoes
     direction 1.53519e-011 -4.22055e-011 1   
     length 1.07924   
     axis -90 7.62852e-016 20   XYZ
    dof rx
    limits (-90.0 20.0)
  end
  begin
     id 6 
     name rhipjoint
     direction -0.577712 -0.667019 0.470462   
     length 2.36015  
     axis 0 0 0  XYZ 
  end
  begin
     id 7 
     name rfemur
     direction -0.34202 -0.939693 0   
     length 6.71195   
     axis 0 0 -20   XYZ
    dof rx ry rz
    limits (-160.0 20.0)
           (-70.0 70.0)
           (-70.0 60.0)
  end
  begin
     id 8 
     name rtibia
     direction -0.34202 -0.939693 0   
     length 7.04592   
     axis 0 0 -20   XYZ
    dof rx
    limits (-10.0 170.0)
 end
 begin
     id 9 
     name rfoot
     direction -0.113796 -0.312651 0.943027   
     length 2.03846  
     axis -90 -7.62852e-016 -20   XYZ
    dof rx rz
    limits (-45.0 90.0)
           (-20.0 70.0)
  end
  begin
     id 10 
     name rtoes
     direction -1.53586e-011 -4.218e-011 1   
     length 1.01562   
     axis -90 -7.62852e-016 -20   XYZ
    dof rx
    limits (-90.0 20.0)
  end
  begin
     id 11 
     name lowerback
     direction -0.0417299 0.991937 -0.119667   
     length 2.05257   
     axis 0 0 0   XYZ
    dof rx ry rz
    limits (-20.0 45.0)
           (-30.0 30.0)
           (-30.0 30.0)
  end
  begin
     id 12 
     name upperback
     direction -0.00017666 0.999999 0.00105178   
     length 2.05693   
     axis 0 0 0   XYZ
    dof rx ry rz
    limits (-20.0 45.0)
           (-30.0 30.0)
           (-30.0 30.0)
  end
  begin
     id 13 
     name thorax
     direction 0.0185169 0.998203 0.0569866   
     length 2.0932   
     axis 0 0 0   XYZ
    dof rx ry rz
    limits (-20.0 45.0)
           (-30.0 30.0)
           (-30.0 30.0)
  end
  begin
     id 14 
     name lowerneck
     direction -0.0212406 0.982645 0.184277   
     length 1.72509   
     axis 0 0 0   XYZ
    dof rx ry rz
    limits (-20.0 45.0)
           (-30.0 30.0)
           (-30.0 30.0)
  end
  begin
     id 15 
     name upperneck
     direction 0.00528579 0.965323 -0.261004   
     length 1.76294   
     axis 0 0 0   XYZ
    dof rx ry rz
    limits (-20.0 45.0)
           (-30.0 30.0)
           (-30.0 30.0)
  end
  begin
     id 16
     name head
     direction 0.00695421 0.994078 -0.108445  
     length 1.78678  
     axis 0 0 0   XYZ
    dof rx ry rz
    limits (-20.0 45.0)
           (-30.0 30.0)
           (-30.0 30.0)
  end
  begin
     id 17 
     name lclavicle
     direction 0.97277 0.211305 -0.095232  
     length 3.84823  
     axis 0 0 0   XYZ
    dof ry rz
    limits (-20.0 10.0)
           (0.0 20.0)
  end
  begin
     id 18 
     name lhumerus
     direction 1 -4.48957e-011 -1.98313e-027   
     length 4.97185   
     axis 180 -30 -90   XYZ
    dof rx ry rz
    limits (-60.0 90.0)
           (-90.0 90.0)
           (-90.0 90.0)
  end
  begin
     id 19
     name lradius
     direction 1 -4.4898e-011 7.31063e-027   
     length 3.35811   
     axis 180 -30 -90   XYZ
    dof rx
    limits (-10.0 170.0)
  end
  begin
     id 20
     name lwrist
     direction 1 -4.48938e-011 9.95048e-027   
     length 1.67905   
     axis -8.75986e-015 90 90   XYZ
    dof ry
    limits (-180.0 0.0)
 end
  begin
     id 21 
     name lhand
     direction 1 -4.4901e-011 1.9901e-026   
     length 0.622776   
     axis -1.26985e-014 90 90   XYZ
    dof rx rz
    limits (-90.0 90.0)
           (-45.0 45.0)
  end
  begin
     id 22 
     name lfingers
     direction 1 -4.48961e-011 3.98019e-026   
     length 0.502098   
     axis -2.5397e-014 90 90   XYZ
    dof rx
    limits (0.0 90.0)
  end
  begin
     id 23
     name lthumb
     direction 0.707107 -6.34933e-011 0.707107   
     length 0.720915   
     axis -90 45 2.85299e-015   XYZ
    dof rx rz
    limits (-45.0 45.0)
           (-45.0 45.0)
  end
  begin
     id 24 
     name rclavicle
     direction -0.990867 0.133739 -0.0172226   
     length 3.78845  
     axis 0 0 0   XYZ 
    dof ry rz
    limits (-10.0 20.0)
           (-20.0 0.0)
  end
  begin
     id 25 
     name rhumerus
     direction -1 -4.48972e-011 -1.99267e-027  
     length 4.96493   
     axis 180 30 90   XYZ
    dof rx ry rz
    limits (-90.0 60.0)
           (-90.0 90.0)
           (-90.0 90.0)
  end
  begin
     id 26 
     name rradius
     direction -1 -4.48969e-011 8.96093e-027   
     length 3.34929   
     axis 180 30 90   XYZ
    dof rx
    limits (-10.0 170.0)
  end
  begin
     id 27 
     name rwrist
     direction -1 -4.48953e-011 9.95048e-027   
     length 1.67464   
     axis -8.75986e-015 -90 -90   XYZ
    dof ry
    limits (-180.0 0.0)
  end
  begin
     id 28
     name rhand
     direction -1 -4.49001e-011 1.9901e-026   
     length 0.638041   
     axis -1.26985e-014 -90 -90   XYZ
    dof rx rz
    limits (-90.0 90.0)
           (-45.0 45.0)
  end
  begin
     id 29
     name rfingers
     direction -1 -4.48967e-011 3.98019e-026   
     length 0.514405   
     axis -2.5397e-014 -90 -90   XYZ
    dof rx
    limits (0.0 90.0)
  end
  begin
     id 30
     name rthumb
     direction -0.707107 -6.34904e-011 0.707107   
     length 0.738586   
     axis -90 -45 -2.85299e-015   XYZ
    dof rx rz
    limits (-45.0 45.0)
           (-45.0 45.0)
  end
:hierarchy
  begin
    root lhipjoint rhipjoint lowerback
    lhipjoint lfemur
    lfemur ltibia
    ltibia lfoot
    lfoot ltoes
    rhipjoint rfemur
    rfemur rtibia
    rtibia rfoot
    rfoot rtoes
    lowerback upperback
    upperback thorax
    thorax lowerneck lclavicle rclavicle
    lowerneck upperneck
    upperneck head
    lclavicle lhumerus
    lhumerus lradius
    lradius lwrist
    lwrist lhand lthumb
    lhand lfingers
    rclavicle rhumerus
    rhumerus rradius
    rradius rwrist
    rwrist rhand rthumb
    rhand rfingers
  end

#!OML:ASF E:\Mandelcareful walks\Project 1\Capture day 1\Session 1\Subject1.ASF
:FULLY-SPECIFIED
:DEGREES
123
root -28.3043 16.2075 -2.4875 26.9885 58.1866 11.0404
lowerback 11.7892 -2.7819 -4.32243
upperback 4.49905 -4.02638 -0.326977
thorax -1.60638 -1.98292 2.59485
lowerneck -22.7153 5.3958 -1.10623
upperneck 26.978 10.3506 -6.17151
head 13.1744 3.61719 -0.34046
rclavicle -2.6339e-014 3.22528e-014
rhumerus -39.3229 0.859682 -82.301
rradius 41.0881
rwrist -17.2634
rhand -11.1935 -23.3839
rfingers 7.12502
rthumb 14.8341 -52.8329
lclavicle -2.6339e-014 3.22528e-014
lhumerus -24.1177 -14.733 86.7794
lradius 47.4674
lwrist 26.5798
lhand -26.3562 -12.6792
lfingers 7.12502
lthumb 0.201756 17.3005
rfemur -38.517 -17.9845 15.6159
rtibia 48.2884
rfoot -23.112 -4.03938
rtoes -11.2668
lfemur -12.4173 2.29573 -28.0029
ltibia 26.5294
lfoot -39.7202 28.2536
ltoes 2.75785
124
root -28.1658 16.1546 -2.34345 27.4958 57.8493 11.3708
lowerback 11.6417 -3.02715 -4.38645
upperback 4.34157 -4.35846 -0.252055
thorax -1.65482 -2.148 2.74375
lowerneck -23.2639 5.84911 -0.94634
upperneck 26.8423 11.1873 -6.89763
head 13.3314 3.88315 -0.47448
rclavicle -8.07811e-014 1.31198e-014
rhumerus -39.9545 1.42966 -82.4731
rradius 41.9877
rwrist -17.8538
rhand -11.1631 -23.7395
rfingers 7.12502
rthumb 14.8633 -53.1864
lclavicle -8.07811e-014 1.31198e-014
lhumerus -24.9058 -15.0204 86.8106
lradius 48.2953
lwrist 27.0085
lhand -26.8284 -13.7971
lfingers 7.12502
lthumb -0.254304 16.1824
rfemur -38.7231 -18.1892 15.4982
rtibia 49.5532
rfoot -23.7398 -3.40587
rtoes -9.38048
lfemur -12.072 3.59653 -28.0738
ltibia 26.6849
lfoot -39.1524 27.9174
ltoes 0.223911
125
root -28.0171 16.087 -2.19345 27.7471 57.5815 11.6364
lowerback 11.5719 -3.0532 -4.12546
upperback 4.2125 -4.37417 -0.409102
thorax -1.78441 -2.14927 2.43888
lowerneck -23.7306 6.15372 -0.194198
upperneck 26.8775 11.6195 -7.66378
head 13.5743 4.0214 -0.79495
rclavicle 3.17807e-014 8.94531e-015
rhumerus -41.0213 1.37286 -82.8967
rradius 43.2686
rwrist -18.6226
rhand -11.6639 -23.7823
rfingers 7.12502
rthumb 14.3809 -53.2642
lclavicle 3.17807e-014 8.94531e-015
lhumerus -25.8571 -16.1461 86.7771
lradius 49.0144
lwrist 27.574
lhand -27.2514 -14.9747
lfingers 7.12502
lthumb -0.662915 15.004
rfemur -38.6143 -18.3542 15.3018
rtibia 50.8184
rfoot -24.5201 -3.17606
rtoes -13.4172
lfemur -11.5422 5.22091 -28.0254
ltibia 27.0148
lfoot -38.5389 27.2642
ltoes -2.5782
126
root -27.8582 16.0146 -2.03275 28.1835 57.3491 12.2327
lowerback 11.4817 -3.32402 -4.19587
upperback 4.09415 -4.74036 -0.334298
thorax -1.8205 -2.33123 2.59662
lowerneck -24.377 6.69021 0.0382366
upperneck 26.9975 12.6131 -8.43354
head 13.9013 4.33467 -0.917219
rclavicle 6.27041e-014 -8.62228e-015
rhumerus -41.8599 2.41232 -83.3374
rradius 44.6236
rwrist -19.4879
rhand -12.1203 -23.4959
rfingers 7.12502
rthumb 13.9411 -53.0085
lclavicle 6.27041e-014 -8.62228e-015
lhumerus -26.9498 -15.9924 87.0119
lradius 49.5348
lwrist 27.7782
lhand -27.5593 -15.6012
lfingers 7.12502
lthumb -0.960317 14.3764
rfemur -38.2959 -18.5981 14.8458
rtibia 52.0734
rfoot -25.4478 -2.87584
rtoes -11.7654
lfemur -11.047 7.21963 -28.0201
ltibia 27.7102
lfoot -37.836 26.199
ltoes -5.04473
127
root -27.6946 15.9416 -1.86449 28.5853 57.2684 12.7561
lowerback 11.2961 -3.34248 -3.90436
upperback 3.96125 -4.73843 -0.472216
thorax -1.89558 -2.32616 2.28549
lowerneck -24.6192 6.85627 0.731407
upperneck 27.0432 12.8784 -9.22952
head 14.1175 4.39722 -1.27946
rclavicle -1.22097e-013 -6.13126e-015
rhumerus -42.8104 2.05092 -83.7493
rradius 45.9396
rwrist -20.0838
rhand -12.2677 -22.5011
rfingers 7.12502
rthumb 13.799 -52.0235
lclavicle -1.22097e-013 -6.13126e-015
lhumerus -27.9587 -16.8036 87.2899
lradius 49.685
lwrist 27.7618
lhand -27.7942 -16.1209
lfingers 7.12502
lthumb -1.18716 13.8555
rfemur -37.8562 -18.7328 14.3875
rtibia 53.2777
rfoot -26.1491 -2.3526
rtoes -7.55681
lfemur -10.8195 9.46221 -27.7867
ltibia 28.9866
lfoot -37.272 24.6801
ltoes -7.04244
128
root -27.5302 15.862 -1.68845 28.0339 57.3433 12.3774
lowerback 11.3502 -3.52561 -3.57898
upperback 3.80967 -4.94511 -0.0534495
thorax -2.0603 -2.42692 2.57228
lowerneck -24.9066 7.13519 0.567101
upperneck 27.2485 13.6225 -9.82974
head 14.374 4.59381 -1.32852
rclavicle -1.02772e-013 -1.39149e-015
rhumerus -43.3168 2.91366 -83.829
rradius 47.0902
rwrist -21.0624
rhand -12.4036 -21.3865
rfingers 7.12502
rthumb 13.6681 -50.9177
lclavicle -1.02772e-013 -1.39149e-015
lhumerus -29.0887 -16.08 87.9793
lradius 49.4928
lwrist 27.1642
lhand -28.1299 -16.898
lfingers 7.12502
lthumb -1.51137 13.0763
rfemur -37.0798 -18.2752 14.3409
rtibia 54.43
rfoot -27.0773 -1.88122
rtoes -11.5884
lfemur -10.6939 11.4281 -26.8475
ltibia 31.044
lfoot -36.9805 23.0403
ltoes -8.30313
129
root -27.365 15.774 -1.50271 26.4262 57.4174 11.1053
lowerback 11.5788 -3.4274 -2.86951
upperback 3.82968 -4.73275 0.334413
thorax -2.20468 -2.31852 2.57008
lowerneck -25.5112 7.1965 0.901686
upperneck 27.7811 13.9436 -10.4884
head 14.867 4.61852 -1.56529
rclavicle 1.47101e-014 3.04141e-014
rhumerus -43.4808 3.1252 -83.9469
rradius 48.2112
rwrist -21.9378
rhand -12.3118 -21.1652
rfingers 7.12502
rthumb 13.7565 -50.6904
lclavicle 1.47101e-014 3.04141e-014
lhumerus -30.2075 -15.812 88.6327
lradius 49.1875
lwrist 26.4886
lhand -28.5274 -17.7106
lfingers 7.12502
lthumb -1.89527 12.2608
rfemur -35.9946 -17.3673 14.7763
rtibia 55.6132
rfoot -28.5829 -1.80391
rtoes -19.1366
lfemur -10.6929 12.6448 -25.2891
ltibia 34.1011
lfoot -36.7672 21.8872
ltoes -8.91437
130
root -27.2086 15.6767 -1.32033 25.8169 57.4922 10.846
lowerback 11.7 -3.27424 -2.65233
upperback 3.89401 -4.49871 0.576202
thorax -2.21559 -2.20272 2.67647
lowerneck -25.9394 7.28528 1.65057
upperneck 27.9415 14.2112 -11.5482
head 15.2449 4.63671 -2.05119
rclavicle -6.63941e-014 5.96354e-015
rhumerus -43.226 3.0912 -84.0259
rradius 49.4475
rwrist -22.5239
rhand -11.8682 -21.0514
rfingers 7.12502
rthumb 14.184 -50.5471
lclavicle -6.63941e-014 5.96354e-015
lhumerus -31.0676 -15.7768 89.2794
lradius 48.6489
lwrist 25.9365
lhand -28.7699 -18.3714
lfingers 7.12502
lthumb -2.12947 11.5977
rfemur -35.1174 -16.9288 14.7697
rtibia 56.8303
rfoot -29.5788 -2.17021
rtoes -23.1237
lfemur -11.4449 13.7159 -24.2025
ltibia 38.3571
lfoot -35.7833 20.799
ltoes -10.1181
131
root -27.0599 15.5689 -1.15317 27.2466 57.6239 12.7426
lowerback 11.9364 -3.20463 -3.3977
upperback 3.78004 -4.49773 0.66258
thorax -2.39573 -2.19941 3.20197
lowerneck -26.192 7.15063 2.02516
upperneck 28.1651 14.2533 -12.419
head 15.5517 4.55518 -2.46403
rclavicle -5.96354e-014 -4.37326e-015
rhumerus -42.7853 3.49922 -83.9973
rradius 50.8651
rwrist -23.0474
rhand -11.6232 -20.598
rfingers 7.12502
rthumb 14.42 -50.0771
lclavicle -5.96354e-014 -4.37326e-015
lhumerus -31.8433 -15.9575 90.149
lradius 47.7982
lwrist 25.5852
lhand -28.8971 -18.4607
lfingers 7.12502
lthumb -2.25231 11.5072
rfemur -34.539 -17.4251 13.5266
rtibia 58.2729
rfoot -29.8348 -2.18802
rtoes -23.0333
lfemur -13.0266 14.2016 -24.3314
ltibia 43.6589
lfoot -33.9286 20.0855
ltoes -11.6557
132
root -26.8743 15.4518 -0.98605 24.8296 57.8411 10.8537
lowerback 12.8171 -2.9593 -2.38866
upperback 3.63497 -4.04773 1.33597
thorax -3.08406 -1.95981 3.34377
lowerneck -25.8051 6.95151 2.19194
upperneck 28.3036 14.2767 -13.2952
head 15.6655 4.48559 -2.86705
rclavicle -5.04913e-014 -1.39149e-014
rhumerus -42.5335 4.6001 -83.8735
rradius 52.3928
rwrist -23.3689
rhand -12.1082 -20.473
rfingers 7.12502
rthumb 13.9528 -49.9849
lclavicle -5.04913e-014 -1.39149e-014
lhumerus -33.3346 -16.1058 91.4853
lradius 46.9362
lwrist 25.3616
lhand -29.0998 -18.3341
lfingers 7.12502
lthumb -2.44812 11.6316
rfemur -33.0152 -16.986 14.166
rtibia 59.405
rfoot -29.8374 -1.71092
rtoes -18.5246
lfemur -14.3217 14.7423 -22.3601
ltibia 49.8709
lfoot -31.7713 19.8493
ltoes -11.0999
133
root -26.7161 15.3087 -0.833021 22.8689 58.4201 9.4047
lowerback 13.0702 -2.78963 -1.19464
upperback 4.1395 -3.63268 1.85035
thorax -2.76571 -1.7585 3.14716
lowerneck -25.9981 6.63942 2.17286
upperneck 28.0729 14.0835 -14.0451
head 15.6791 4.31109 -3.21433
rclavicle -4.77083e-014 -2.70347e-014
rhumerus -40.7854 5.35327 -83.8207
rradius 53.8369
rwrist -23.5888
rhand -13.1019 -20.2902
rfingers 7.12502
rthumb 12.995 -49.8655
lclavicle -4.77083e-014 -2.70347e-014
lhumerus -33.691 -16.6005 92.3084
lradius 45.8417
lwrist 24.8789
lhand -29.0057 -18.3616
lfingers 7.12502
lthumb -2.35726 11.6051
rfemur -31.5731 -17.0844 14.796
rtibia 60.4058
rfoot -29.7215 -0.972475
rtoes -13.2142
lfemur -16.0848 14.9061 -20.5821
ltibia 56.6314
lfoot -29.231 18.9326
ltoes -6.54815
134
root -26.521 15.2064 -0.6815 20.5527 58.8395 7.77397
lowerback 13.7688 -2.57917 0.203887
upperback 4.54555 -3.12711 2.34811
thorax -2.79686 -1.49831 2.83025
lowerneck -26.1312 6.29829 2.00592
upperneck 28.0057 13.8931 -14.6467
head 15.7255 4.13836 -3.48186
rclavicle 1.63003e-014 2.46493e-014
rhumerus -38.9035 6.37983 -83.6216
rradius 55.3311
rwrist -24.029
rhand -14.0014 -20.1424
rfingers 7.12502
rthumb 12.1278 -49.7709
lclavicle 1.63003e-014 2.46493e-014
lhumerus -34.3565 -16.3854 93.0891
lradius 44.4793
lwrist 23.3846
lhand -28.1929 -18.292
lfingers 7.12502
lthumb -1.57217 11.6819
rfemur -29.5431 -17.2673 15.2858
rtibia 60.8586
rfoot -30.448 -1.01275
rtoes -16.352
lfemur -18.4263 14.8129 -18.9445
ltibia 63.5654
lfoot -26.0391 18.6332
ltoes -5.13107
135
root -26.3186 15.1196 -0.534679 18.5978 59.1263 6.5338
lowerback 14.7665 -2.39973 1.31393
upperback 4.75817 -2.67444 2.79221
thorax -3.16007 -1.26107 2.64068
lowerneck -26.0361 6.00786 1.78519
upperneck 27.9816 13.7654 -15.1398
head 15.7302 4.01142 -3.68492
rclavicle 5.92378e-014 1.51076e-014
rhumerus -36.9017 7.72754 -83.3673
rradius 56.8569
rwrist -24.4316
rhand -14.8731 -20.2909
rfingers 7.12502
rthumb 11.2871 -49.9672
lclavicle 5.92378e-014 1.51076e-014
lhumerus -36.3216 -18.6847 94.6154
lradius 44.0817
lwrist 24.218
lhand -28.2056 -17.7985
lfingers 7.12502
lthumb -1.5845 12.1753
rfemur -27.3375 -17.4805 15.4542
rtibia 60.9698
rfoot -31.5213 -1.08679
rtoes -20.3962
lfemur -21.2791 14.5585 -17.7218
ltibia 70.2739
lfoot -23.566 16.9612
ltoes -2.583
